<svg xmlns="http://www.w3.org/2000/svg" xmlns:xlink="http://www.w3.org/1999/xlink" width="1200" zoomAndPan="magnify" viewBox="0 0 900 899.99999" height="1200" preserveAspectRatio="xMidYMid meet" version="1.0"><defs><g/><clipPath id="6b373e0944"><path d="M 505 33 L 571.640625 33 L 571.640625 110 L 505 110 Z M 505 33 " clip-rule="nonzero"/></clipPath><clipPath id="6c4b09117a"><rect x="0" width="572" y="0" height="137"/></clipPath><clipPath id="6bd95dae53"><path d="M 27 278 L 132.671875 278 L 132.671875 483.265625 L 27 483.265625 Z M 27 278 " clip-rule="nonzero"/></clipPath><clipPath id="61d4040af5"><path d="M 142.957031 386.859375 L 239.367188 386.859375 L 239.367188 483.269531 L 142.957031 483.269531 Z M 142.957031 386.859375 " clip-rule="nonzero"/></clipPath><clipPath id="329530f243"><path d="M 191.164062 386.859375 C 164.539062 386.859375 142.957031 408.441406 142.957031 435.066406 C 142.957031 461.6875 164.539062 483.269531 191.164062 483.269531 C 217.785156 483.269531 239.367188 461.6875 239.367188 435.066406 C 239.367188 408.441406 217.785156 386.859375 191.164062 386.859375 Z M 191.164062 386.859375 " clip-rule="nonzero"/></clipPath><clipPath id="7a504f952d"><path d="M 0.957031 0.859375 L 97.367188 0.859375 L 97.367188 97.269531 L 0.957031 97.269531 Z M 0.957031 0.859375 " clip-rule="nonzero"/></clipPath><clipPath id="267dc506e3"><path d="M 49.164062 0.859375 C 22.539062 0.859375 0.957031 22.441406 0.957031 49.066406 C 0.957031 75.6875 22.539062 97.269531 49.164062 97.269531 C 75.785156 97.269531 97.367188 75.6875 97.367188 49.066406 C 97.367188 22.441406 75.785156 0.859375 49.164062 0.859375 Z M 49.164062 0.859375 " clip-rule="nonzero"/></clipPath><clipPath id="c4bb2b4223"><rect x="0" width="98" y="0" height="98"/></clipPath><clipPath id="aeb5870425"><path d="M 142.957031 278.070312 L 239.367188 278.070312 L 239.367188 374.480469 L 142.957031 374.480469 Z M 142.957031 278.070312 " clip-rule="nonzero"/></clipPath><clipPath id="84eab53de9"><path d="M 191.164062 278.070312 C 164.539062 278.070312 142.957031 299.652344 142.957031 326.277344 C 142.957031 352.898438 164.539062 374.480469 191.164062 374.480469 C 217.785156 374.480469 239.367188 352.898438 239.367188 326.277344 C 239.367188 299.652344 217.785156 278.070312 191.164062 278.070312 Z M 191.164062 278.070312 " clip-rule="nonzero"/></clipPath><clipPath id="a1e05105a8"><path d="M 0.957031 0.0703125 L 97.367188 0.0703125 L 97.367188 96.480469 L 0.957031 96.480469 Z M 0.957031 0.0703125 " clip-rule="nonzero"/></clipPath><clipPath id="bc38943a9d"><path d="M 49.164062 0.0703125 C 22.539062 0.0703125 0.957031 21.652344 0.957031 48.277344 C 0.957031 74.898438 22.539062 96.480469 49.164062 96.480469 C 75.785156 96.480469 97.367188 74.898438 97.367188 48.277344 C 97.367188 21.652344 75.785156 0.0703125 49.164062 0.0703125 Z M 49.164062 0.0703125 " clip-rule="nonzero"/></clipPath><clipPath id="aa7ebd6f55"><rect x="0" width="98" y="0" height="97"/></clipPath><clipPath id="703fe582af"><path d="M 745.160156 310.953125 L 775.808594 310.953125 L 775.808594 341.601562 L 745.160156 341.601562 Z M 745.160156 310.953125 " clip-rule="nonzero"/></clipPath><clipPath id="283350764d"><path d="M 760.484375 310.953125 C 752.019531 310.953125 745.160156 317.8125 745.160156 326.277344 C 745.160156 334.738281 752.019531 341.601562 760.484375 341.601562 C 768.949219 341.601562 775.808594 334.738281 775.808594 326.277344 C 775.808594 317.8125 768.949219 310.953125 760.484375 310.953125 Z M 760.484375 310.953125 " clip-rule="nonzero"/></clipPath><clipPath id="bf4cbdb233"><path d="M 0.160156 0.953125 L 30.808594 0.953125 L 30.808594 31.601562 L 0.160156 31.601562 Z M 0.160156 0.953125 " clip-rule="nonzero"/></clipPath><clipPath id="9decdecc5a"><path d="M 15.484375 0.953125 C 7.019531 0.953125 0.160156 7.8125 0.160156 16.277344 C 0.160156 24.738281 7.019531 31.601562 15.484375 31.601562 C 23.949219 31.601562 30.808594 24.738281 30.808594 16.277344 C 30.808594 7.8125 23.949219 0.953125 15.484375 0.953125 Z M 15.484375 0.953125 " clip-rule="nonzero"/></clipPath><clipPath id="3aa9391bae"><rect x="0" width="31" y="0" height="32"/></clipPath></defs><rect x="-90" width="1080" fill="#ffffff" y="-89.999999" height="1079.999988" fill-opacity="1"/><rect x="-90" width="1080" fill="#ffffff" y="-89.999999" height="1079.999988" fill-opacity="1"/><g transform="matrix(1, 0, 0, 1, 271, 316)"><g clip-path="url(#6c4b09117a)"><g fill="#0b2247" fill-opacity="1"><g transform="translate(0.328135, 109.726845)"><g><path d="M 103.453125 -78.140625 C 112.992188 -78.140625 120.125 -74.90625 124.84375 -68.4375 C 129.570312 -61.96875 131.9375 -52.78125 131.9375 -40.875 L 131.9375 0 L 114.296875 0 L 114.296875 -40.515625 C 114.296875 -47.992188 112.859375 -53.390625 109.984375 -56.703125 C 107.109375 -60.023438 103.210938 -61.6875 98.296875 -61.6875 C 95.140625 -61.6875 92.160156 -60.726562 89.359375 -58.8125 C 86.554688 -56.894531 84.289062 -54.210938 82.5625 -50.765625 C 80.84375 -47.328125 79.984375 -43.316406 79.984375 -38.734375 L 79.984375 0 L 62.359375 0 L 62.359375 -40.515625 C 62.359375 -47.992188 60.914062 -53.390625 58.03125 -56.703125 C 55.15625 -60.023438 51.285156 -61.6875 46.421875 -61.6875 C 43.222656 -61.6875 40.234375 -60.726562 37.453125 -58.8125 C 34.671875 -56.894531 32.414062 -54.210938 30.6875 -50.765625 C 28.96875 -47.328125 28.109375 -43.316406 28.109375 -38.734375 L 28.109375 0 L 10.484375 0 L 10.484375 -75.859375 L 27.15625 -75.859375 L 27.375 -64.046875 C 28.707031 -66.753906 30.550781 -69.164062 32.90625 -71.28125 C 35.269531 -73.394531 38.035156 -75.066406 41.203125 -76.296875 C 44.378906 -77.523438 47.835938 -78.140625 51.578125 -78.140625 C 57.921875 -78.140625 63.195312 -76.675781 67.40625 -73.75 C 71.613281 -70.820312 74.773438 -66.582031 76.890625 -61.03125 C 80.140625 -66.882812 84.023438 -71.195312 88.546875 -73.96875 C 93.078125 -76.75 98.046875 -78.140625 103.453125 -78.140625 Z M 103.453125 -78.140625 "/></g></g></g><g fill="#0b2247" fill-opacity="1"><g transform="translate(135.049344, 109.726845)"><g><path d="M 19.265625 -87.671875 C 15.816406 -87.671875 13.117188 -88.664062 11.171875 -90.65625 C 9.234375 -92.644531 8.265625 -95.066406 8.265625 -97.921875 C 8.265625 -100.671875 9.234375 -103.054688 11.171875 -105.078125 C 13.117188 -107.097656 15.835938 -108.109375 19.328125 -108.109375 C 22.921875 -108.109375 25.6875 -107.097656 27.625 -105.078125 C 29.570312 -103.054688 30.546875 -100.671875 30.546875 -97.921875 C 30.546875 -95.066406 29.570312 -92.644531 27.625 -90.65625 C 25.6875 -88.664062 22.898438 -87.671875 19.265625 -87.671875 Z M 28.34375 0 L 10.484375 0 L 10.484375 -75.859375 L 28.34375 -75.859375 Z M 28.34375 0 "/></g></g></g><g fill="#0b2247" fill-opacity="1"><g transform="translate(166.685919, 109.726845)"><g><path d="M 44.28125 2.28125 C 38.613281 2.28125 33.394531 1.238281 28.625 -0.84375 C 23.851562 -2.9375 19.707031 -5.828125 16.1875 -9.515625 C 12.675781 -13.203125 9.945312 -17.484375 8 -22.359375 C 6.0625 -27.234375 5.09375 -32.421875 5.09375 -37.921875 C 5.09375 -43.429688 6.0625 -48.609375 8 -53.453125 C 9.945312 -58.304688 12.675781 -62.585938 16.1875 -66.296875 C 19.707031 -70.015625 23.851562 -72.914062 28.625 -75 C 33.394531 -77.09375 38.613281 -78.140625 44.28125 -78.140625 C 50.820312 -78.140625 56.660156 -76.875 61.796875 -74.34375 C 66.941406 -71.8125 71.25 -68.351562 74.71875 -63.96875 C 78.1875 -59.59375 80.632812 -54.628906 82.0625 -49.078125 L 63.828125 -49.078125 C 62.160156 -53.304688 59.578125 -56.441406 56.078125 -58.484375 C 52.585938 -60.523438 48.675781 -61.546875 44.34375 -61.546875 C 41.59375 -61.546875 38.9375 -61.015625 36.375 -59.953125 C 33.820312 -58.898438 31.523438 -57.363281 29.484375 -55.34375 C 27.441406 -53.320312 25.816406 -50.847656 24.609375 -47.921875 C 23.398438 -44.992188 22.796875 -41.660156 22.796875 -37.921875 C 22.796875 -34.191406 23.398438 -30.863281 24.609375 -27.9375 C 25.816406 -25.007812 27.441406 -22.523438 29.484375 -20.484375 C 31.523438 -18.441406 33.835938 -16.890625 36.421875 -15.828125 C 39.003906 -14.765625 41.644531 -14.234375 44.34375 -14.234375 C 48.675781 -14.234375 52.585938 -15.300781 56.078125 -17.4375 C 59.578125 -19.582031 62.160156 -23.019531 63.828125 -27.75 L 81.984375 -27.75 C 80.703125 -21.894531 78.3125 -16.703125 74.8125 -12.171875 C 71.320312 -7.648438 66.984375 -4.109375 61.796875 -1.546875 C 56.609375 1.003906 50.769531 2.28125 44.28125 2.28125 Z M 44.28125 2.28125 "/></g></g></g><g fill="#0b2247" fill-opacity="1"><g transform="translate(245.548098, 109.726845)"><g><path d="M 28.34375 0 L 10.484375 0 L 10.484375 -75.859375 L 27.59375 -75.859375 L 27.59375 -62.125 C 29.363281 -66.3125 31.96875 -69.644531 35.40625 -72.125 C 38.851562 -74.613281 43.039062 -75.859375 47.96875 -75.859375 L 56.078125 -75.859375 L 56.078125 -60.515625 L 48.921875 -60.515625 C 44.835938 -60.515625 41.242188 -59.53125 38.140625 -57.5625 C 35.046875 -55.59375 32.640625 -52.738281 30.921875 -49 C 29.203125 -45.257812 28.34375 -40.679688 28.34375 -35.265625 Z M 28.34375 0 "/></g></g></g><g fill="#0b2247" fill-opacity="1"><g transform="translate(296.812801, 109.726845)"><g><path d="M 44.9375 2.28125 C 39.1875 2.28125 33.875 1.25 29 -0.8125 C 24.125 -2.875 19.90625 -5.75 16.34375 -9.4375 C 12.78125 -13.132812 10.015625 -17.414062 8.046875 -22.28125 C 6.078125 -27.15625 5.09375 -32.367188 5.09375 -37.921875 C 5.09375 -43.484375 6.078125 -48.6875 8.046875 -53.53125 C 10.015625 -58.375 12.78125 -62.640625 16.34375 -66.328125 C 19.90625 -70.023438 24.125 -72.914062 29 -75 C 33.875 -77.09375 39.210938 -78.140625 45.015625 -78.140625 C 50.867188 -78.140625 56.226562 -77.09375 61.09375 -75 C 65.96875 -72.914062 70.195312 -70.023438 73.78125 -66.328125 C 77.375 -62.640625 80.15625 -58.375 82.125 -53.53125 C 84.09375 -48.6875 85.078125 -43.484375 85.078125 -37.921875 C 85.078125 -32.316406 84.09375 -27.09375 82.125 -22.25 C 80.15625 -17.40625 77.375 -13.132812 73.78125 -9.4375 C 70.195312 -5.75 65.957031 -2.875 61.0625 -0.8125 C 56.164062 1.25 50.789062 2.28125 44.9375 2.28125 Z M 45.09375 -14.3125 C 49.363281 -14.3125 53.171875 -15.332031 56.515625 -17.375 C 59.867188 -19.414062 62.515625 -22.207031 64.453125 -25.75 C 66.398438 -29.289062 67.375 -33.347656 67.375 -37.921875 C 67.375 -42.503906 66.398438 -46.578125 64.453125 -50.140625 C 62.515625 -53.703125 59.867188 -56.503906 56.515625 -58.546875 C 53.171875 -60.585938 49.363281 -61.609375 45.09375 -61.609375 C 40.851562 -61.609375 37.046875 -60.585938 33.671875 -58.546875 C 30.304688 -56.503906 27.648438 -53.703125 25.703125 -50.140625 C 23.765625 -46.578125 22.796875 -42.503906 22.796875 -37.921875 C 22.796875 -33.347656 23.765625 -29.289062 25.703125 -25.75 C 27.648438 -22.207031 30.304688 -19.414062 33.671875 -17.375 C 37.046875 -15.332031 40.851562 -14.3125 45.09375 -14.3125 Z M 45.09375 -14.3125 "/></g></g></g><g fill="#0b2247" fill-opacity="1"><g transform="translate(379.881004, 109.726845)"><g><path d="M 59.921875 0 L 11.953125 0 L 11.953125 -100.359375 L 55.71875 -100.359375 C 61.8125 -100.359375 67.144531 -99.257812 71.71875 -97.0625 C 76.300781 -94.875 79.867188 -91.75 82.421875 -87.6875 C 84.984375 -83.632812 86.265625 -78.804688 86.265625 -73.203125 C 86.265625 -70.253906 85.6875 -67.4375 84.53125 -64.75 C 83.375 -62.070312 81.832031 -59.710938 79.90625 -57.671875 C 77.988281 -55.628906 75.875 -54.113281 73.5625 -53.125 C 76.957031 -52.039062 80.046875 -50.332031 82.828125 -48 C 85.609375 -45.664062 87.832031 -42.882812 89.5 -39.65625 C 91.175781 -36.4375 92.015625 -32.929688 92.015625 -29.140625 C 92.015625 -24.171875 91.113281 -19.851562 89.3125 -16.1875 C 87.519531 -12.53125 85.085938 -9.507812 82.015625 -7.125 C 78.941406 -4.738281 75.5 -2.953125 71.6875 -1.765625 C 67.875 -0.585938 63.953125 0 59.921875 0 Z M 30.46875 -84.5625 L 30.46875 -58.4375 L 54.828125 -58.4375 C 57.285156 -58.4375 59.484375 -59.015625 61.421875 -60.171875 C 63.367188 -61.328125 64.90625 -62.898438 66.03125 -64.890625 C 67.164062 -66.890625 67.734375 -69.117188 67.734375 -71.578125 C 67.734375 -74.035156 67.164062 -76.25 66.03125 -78.21875 C 64.90625 -80.1875 63.382812 -81.734375 61.46875 -82.859375 C 59.550781 -83.992188 57.363281 -84.5625 54.90625 -84.5625 Z M 30.46875 -44.640625 L 30.46875 -15.859375 L 58.296875 -15.859375 C 61.148438 -15.859375 63.695312 -16.484375 65.9375 -17.734375 C 68.175781 -18.992188 69.945312 -20.726562 71.25 -22.9375 C 72.550781 -25.15625 73.203125 -27.691406 73.203125 -30.546875 C 73.203125 -33.148438 72.5625 -35.507812 71.28125 -37.625 C 70 -39.75 68.238281 -41.445312 66 -42.71875 C 63.769531 -44 61.25 -44.640625 58.4375 -44.640625 Z M 30.46875 -44.640625 "/></g></g></g><g fill="#0b2247" fill-opacity="1"><g transform="translate(469.516539, 109.726845)"><g><path d="M 19.265625 -87.671875 C 15.816406 -87.671875 13.117188 -88.664062 11.171875 -90.65625 C 9.234375 -92.644531 8.265625 -95.066406 8.265625 -97.921875 C 8.265625 -100.671875 9.234375 -103.054688 11.171875 -105.078125 C 13.117188 -107.097656 15.835938 -108.109375 19.328125 -108.109375 C 22.921875 -108.109375 25.6875 -107.097656 27.625 -105.078125 C 29.570312 -103.054688 30.546875 -100.671875 30.546875 -97.921875 C 30.546875 -95.066406 29.570312 -92.644531 27.625 -90.65625 C 25.6875 -88.664062 22.898438 -87.671875 19.265625 -87.671875 Z M 28.34375 0 L 10.484375 0 L 10.484375 -75.859375 L 28.34375 -75.859375 Z M 28.34375 0 "/></g></g></g><g clip-path="url(#6b373e0944)"><g fill="#0b2247" fill-opacity="1"><g transform="translate(501.153087, 109.726845)"><g><path d="M 70.03125 0 L 4.65625 0 L 4.65625 -11.0625 L 43.984375 -60.796875 L 6.640625 -60.796875 L 6.640625 -75.859375 L 68.25 -75.859375 L 68.25 -64.640625 L 29.21875 -15.046875 L 70.03125 -15.046875 Z M 70.03125 0 "/></g></g></g></g></g></g><g clip-path="url(#6bd95dae53)"><path fill="#0b2247" d="M 132.371094 278.070312 L 132.371094 483.265625 C 95.777344 482.371094 66.460938 468.269531 46.453125 438.132812 C 23.019531 402.832031 21.792969 365.476562 43.023438 328.867188 C 62.414062 295.4375 92.96875 279.511719 132.367188 278.066406 Z M 132.371094 278.070312 " fill-opacity="1" fill-rule="nonzero"/></g><g clip-path="url(#61d4040af5)"><g clip-path="url(#329530f243)"><g transform="matrix(1, 0, 0, 1, 142, 386)"><g clip-path="url(#c4bb2b4223)"><g clip-path="url(#7a504f952d)"><g clip-path="url(#267dc506e3)"><path fill="#0b2247" d="M 0.957031 0.859375 L 97.367188 0.859375 L 97.367188 97.269531 L 0.957031 97.269531 Z M 0.957031 0.859375 " fill-opacity="1" fill-rule="nonzero"/></g></g></g></g></g></g><g clip-path="url(#aeb5870425)"><g clip-path="url(#84eab53de9)"><g transform="matrix(1, 0, 0, 1, 142, 278)"><g clip-path="url(#aa7ebd6f55)"><g clip-path="url(#a1e05105a8)"><g clip-path="url(#bc38943a9d)"><path fill="#ff751f" d="M 0.957031 0.0703125 L 97.367188 0.0703125 L 97.367188 96.480469 L 0.957031 96.480469 Z M 0.957031 0.0703125 " fill-opacity="1" fill-rule="nonzero"/></g></g></g></g></g></g><g clip-path="url(#703fe582af)"><g clip-path="url(#283350764d)"><g transform="matrix(1, 0, 0, 1, 745, 310)"><g clip-path="url(#3aa9391bae)"><g clip-path="url(#bf4cbdb233)"><g clip-path="url(#9decdecc5a)"><path fill="#ff751f" d="M 0.160156 0.953125 L 30.808594 0.953125 L 30.808594 31.601562 L 0.160156 31.601562 Z M 0.160156 0.953125 " fill-opacity="1" fill-rule="nonzero"/></g></g></g></g></g></g></svg>